<svg width="512" height="512" viewBox="0 0 512 512" xmlns="http://www.w3.org/2000/svg">
  <defs>
    <linearGradient id="bg" x1="58" y1="38" x2="452" y2="476" gradientUnits="userSpaceOnUse">
      <stop stop-color="#262D27"/>
      <stop offset="1" stop-color="#0C100D"/>
    </linearGradient>
    <filter id="glow" x="-40%" y="-40%" width="180%" height="180%">
      <feGaussianBlur stdDeviation="12" result="blur"/>
      <feComposite in="SourceGraphic" in2="blur" operator="over"/>
    </filter>
  </defs>
  <rect x="12" y="12" width="488" height="488" rx="116" fill="url(#bg)"/>
  <rect x="13" y="13" width="486" height="486" rx="115" fill="none" stroke="#FFFFFF" stroke-opacity=".08" stroke-width="2"/>
  <g fill="#A7F36B" filter="url(#glow)">
    <path d="M256 234C104 221 104 75 194 75c44 0 62 38 62 79 0-41 18-79 62-79 90 0 90 146-62 159Z"/>
    <path d="M278 256c13-152 159-152 159-62 0 44-38 62-79 62 41 0 79 18 79 62 0 90-146 90-159-62Z"/>
    <path d="M256 278c152 13 152 159 62 159-44 0-62-38-62-79 0 41-18 79-62 79-90 0-90-146 62-159Z"/>
    <path d="M234 256C221 408 75 408 75 318c0-44 38-62 79-62-41 0-79-18-79-62 0-90 146-90 159 62Z"/>
  </g>
  <circle cx="256" cy="256" r="42" fill="#111612"/>
  <path d="M237 257h38l-22 58h-38l22-58Z" fill="#A7F36B"/>
</svg>

